<svg xmlns="http://www.w3.org/2000/svg" width="295.6" height="36.4" viewBox="0 0 295.6 36.4"><path d="M57.4 3.9c-1.5-1.2-3.6-1.8-6.4-1.8h-5.4V23h4.9v-7.5h.5c1.3 0 2.5-.2 3.5-.5 1.1-.3 2-.8 2.7-1.4.8-.6 1.4-1.3 1.8-2.1.4-.8.6-1.7.6-2.7.1-2.1-.7-3.7-2.2-4.9zm-3.8 6.7c-.7.4-1.6.7-2.8.7h-.3v-5h.3c1.3 0 2.3.2 2.9.6.6.4.9 1 .9 1.9 0 .8-.3 1.4-1 1.8zM73.2 9.9c-.7-.7-1.5-1.2-2.4-1.6-.9-.4-2-.6-3.1-.6s-2.2.2-3.1.6c-.9.4-1.7.9-2.4 1.6-.7.7-1.2 1.5-1.5 2.5-.4 1-.5 2-.5 3.2 0 1.2.2 2.2.5 3.2.4 1 .9 1.8 1.5 2.5.7.7 1.5 1.2 2.4 1.6.9.4 2 .6 3.1.6s2.2-.2 3.1-.6c.9-.4 1.7-.9 2.4-1.6.7-.7 1.2-1.5 1.5-2.5.4-1 .6-2 .6-3.2 0-1.2-.2-2.2-.6-3.2-.3-1-.9-1.8-1.5-2.5zm-3.5 8.4c-.4.6-1.1 1-2 1-.9 0-1.6-.3-1.9-1-.4-.6-.6-1.6-.6-2.7 0-1.2.2-2.1.6-2.7.4-.6 1-1 2-1 .9 0 1.6.3 2 1 .4.6.6 1.6.6 2.7-.1 1.2-.3 2.1-.7 2.7zM87.9 8.4c-.8.5-1.5 1.2-2.3 2.1-.6.8-1.1 1.4-1.4 1.9-.3.5-.6.8-.9.8h-.1V0h-4.7v22.9h4.7v-6.3h.1c.6 0 1.1.1 1.4.4.3.3.5.7.7 1.4l.4 1.7c.5 2.1 1.9 3.2 4.1 3.2.7 0 1.5-.1 2.3-.3v-2.5h-.4c-.5 0-.9-.1-1.1-.4-.2-.3-.4-.7-.5-1.3l-.5-2.8c-.1-.6-.3-1-.6-1.5-.3-.4-.5-.7-.9-.9.3-.5.6-.9.9-1.3.3-.4.6-.7.9-1 .3-.3.7-.5 1.1-.6.4-.1.9-.2 1.4-.2V8c-.9-.2-1.5-.3-2-.3-1 0-1.8.2-2.6.7zM106.5 9.8c-.6-.6-1.3-1.1-2.2-1.5-.8-.4-1.8-.5-2.8-.5-1.1 0-2.1.2-3 .6-.8.4-1.5.9-2.2 1.6-.6.7-1.2 1.5-1.5 2.5-.4 1-.6 2-.6 3.2 0 1.2.2 2.2.6 3.2.4 1 .9 1.8 1.6 2.4.7.7 1.5 1.2 2.5 1.6 1 .4 2 .6 3.2.6 2.3 0 4.3-.7 6-2.2l-2.2-2.6c-.5.4-1 .7-1.5.9-.5.2-1 .3-1.6.3-1 0-1.8-.2-2.3-.7-.6-.5-1-1.2-1.2-2.1h9.3v-1.8c0-1.1-.2-2.1-.5-3-.5-1.1-1-1.9-1.6-2.5zm-7.3 4.6c.1-1 .3-1.7.7-2.2.4-.5.9-.8 1.6-.8 1.5 0 2.2 1 2.3 3h-4.6zM117.9 8.7c-.5.6-1.1 1.5-1.7 2.7h-.1V8.2H112V23h4.7v-8.7c.6-1.1 1.2-1.6 1.9-1.6.4 0 .8.1 1.3.3l1.5-4.6c-.6-.3-1.2-.5-1.7-.5-.7-.1-1.2.2-1.8.8zM130.2 10.2l-1.4-.5c-.7-.3-1.2-.5-1.5-.7-.3-.2-.5-.6-.5-1.1 0-1 .8-1.5 2.3-1.5 1.2 0 2.6.5 4.2 1.6l1.6-4.5c-.6-.4-1.4-.8-2.4-1.1-1-.4-2.1-.6-3.5-.6-1 0-2 .2-2.9.5-.9.3-1.6.7-2.2 1.3-.6.6-1.1 1.2-1.4 2-.4.6-.5 1.4-.5 2.3 0 1.5.4 2.9 1.2 4 .8 1.2 2 2.1 3.6 2.7l1.4.6c.3.1.6.3.9.4.3.1.5.2.7.4.2.1.3.3.5.5.1.2.2.5.2.8 0 .6-.2 1.1-.6 1.4-.4.3-.9.5-1.6.5-1.2 0-2.4-.8-3.4-2.4l-3.3 2.9c.5 1.2 1.3 2.1 2.4 2.7 1.1.7 2.5 1 4 1 1.1 0 2.2-.2 3.1-.5.9-.3 1.7-.7 2.3-1.3.6-.6 1.1-1.2 1.5-2 .3-.8.5-1.6.5-2.6 0-3.2-1.8-5.5-5.2-6.8zM143.7 18.7v-8h1.9V8.2h-1.9V2.6H139v5.6h-1.8v2.6h1.8V19c0 2.9 1.4 4.3 4.2 4.3.7 0 1.5-.1 2.5-.4v-2.6h-.3c-1.2.1-1.7-.5-1.7-1.6zM154.8 8.7c-.5.6-1.1 1.5-1.7 2.7h-.1V8.2h-4.2V23h4.7v-8.7c.6-1.1 1.2-1.6 1.9-1.6.4 0 .8.1 1.3.3l1.5-4.6c-.6-.3-1.2-.5-1.7-.5-.6-.1-1.1.2-1.7.8zM166.5 7.8c-2.5 0-4.6.8-6.3 2.3l2.4 2.8c1.2-.8 2.4-1.2 3.6-1.2.8 0 1.4.1 1.8.4.4.3.6.6.6 1.1v1c-1-.1-1.8-.2-2.4-.2-2.1 0-3.7.4-4.9 1.3-1.2.9-1.8 2.1-1.8 3.5s.4 2.5 1.3 3.4c.9.9 2.1 1.3 3.6 1.3 1.7 0 3.2-.9 4.3-2.6h.1v2.2h4.4v-9c0-2.1-.6-3.6-1.8-4.6-.9-1.2-2.7-1.7-4.9-1.7zm-.2 12c-.5 0-.9-.2-1.2-.5-.3-.3-.5-.8-.5-1.3 0-.6.2-1 .6-1.4.4-.3 1-.5 1.6-.5.6 0 1.3.1 1.9.3-.2 2.3-1 3.4-2.4 3.4zM182.7 18.7v-8h1.9V8.2h-1.9V2.6H178v5.6h-1.8v2.6h1.8V19c0 2.9 1.4 4.3 4.2 4.3.7 0 1.5-.1 2.5-.4v-2.6h-.3c-1.1.1-1.7-.5-1.7-1.6zM199.1 9.8c-.6-.6-1.3-1.1-2.2-1.5-.8-.4-1.8-.5-2.8-.5-1.1 0-2.1.2-3 .6-.9.4-1.7.9-2.3 1.6-.6.7-1.2 1.5-1.5 2.5-.4 1-.6 2-.6 3.2 0 1.2.2 2.2.6 3.2.4 1 .9 1.8 1.6 2.4.7.7 1.5 1.2 2.5 1.6 1 .4 2 .6 3.2.6 2.3 0 4.3-.7 6-2.2l-2.2-2.6c-.5.4-1 .7-1.5.9-.5.2-1 .3-1.6.3-1 0-1.8-.2-2.3-.7-.6-.5-1-1.2-1.2-2.1h9.3v-1.8c0-1.1-.2-2.1-.5-3-.4-1.1-.9-1.9-1.5-2.5zm-7.3 4.6c.1-1 .3-1.7.7-2.2.4-.5.9-.8 1.6-.8 1.5 0 2.2 1 2.3 3h-4.6zM211.5 6.8l-.5 1.3c-.4-.1-.9-.1-1.3-.1-.9 0-1.7.2-2.5.5-.7.3-1.4.7-1.9 1.2s-1 1.2-1.3 1.9c-.3.7-.5 1.5-.5 2.4 0 1.3.3 2.4.9 3.2.6.9 1.5 1.6 2.6 2-.2.5-.4 1-.6 1.3-.2.4-.2.7-.2 1.1 0 .6.2 1 .6 1.2.4.2 1 .4 1.9.6.8.2 1.5.3 1.9.5.4.2.6.5.6 1 0 .4-.2.8-.5 1-.3.3-.8.4-1.3.4-.6 0-1-.1-1.3-.4-.3-.3-.5-.6-.5-1h-4.1v.4c0 1.4.5 2.5 1.5 3.2 1 .8 2.5 1.1 4.4 1.1 1 0 2-.1 2.8-.4.8-.2 1.6-.6 2.2-1 .6-.4 1-1 1.4-1.6.3-.6.5-1.3.5-2 0-1.1-.3-1.9-.9-2.5-.6-.6-1.5-1-2.8-1.2-.7-.1-1.3-.3-1.7-.4s-.6-.3-.6-.5c0-.1 0-.3.1-.5 1.8-.2 3.2-.8 4.1-1.8 1-1 1.4-2.3 1.4-4 0-1.8-.6-3.2-1.8-4.4l.2-.4c.5-.9 1-1.3 1.7-1.3h.3c.1 0 .2 0 .3.1V5.5c-.8-.5-1.5-.7-2.3-.7-1.3 0-2.3.7-2.8 2zm-.4 8.9c-.3.4-.7.6-1.3.6-.5 0-.9-.2-1.2-.6-.3-.4-.5-.9-.5-1.7 0-.7.1-1.2.5-1.6.3-.4.7-.6 1.2-.6s1 .2 1.3.6c.3.4.5.9.5 1.6 0 .7-.2 1.3-.5 1.7zM228.8 8.1l-2.9 7h-.1l-3.2-7h-5l6.1 12.4-1.4 3.3c-.2.4-.4.8-.5 1.2-.2.3-.3.6-.6.9-.2.2-.5.4-.7.5-.3.1-.6.2-1 .2v2.7c.5.1.9.2 1.3.2s.8.1 1.1.1c.7 0 1.2-.1 1.7-.3.5-.2.8-.5 1.2-1 .3-.4.7-.9 1-1.5.3-.6.6-1.3 1-2.1l7.1-16.5h-5.1zM236 18.5c-.7 0-1.2.2-1.7.7-.5.5-.7 1.1-.7 1.7 0 .7.2 1.2.7 1.7.5.5 1 .7 1.7.7s1.3-.2 1.7-.7c.5-.5.7-1 .7-1.7s-.2-1.2-.7-1.7c-.5-.4-1.1-.7-1.7-.7zM249.2 12c.9 0 1.8.2 2.6.7l1.7-3.3c-.7-.5-1.4-.9-2.3-1.2-.8-.3-1.7-.4-2.6-.4-1.1 0-2.1.2-3 .6-.9.4-1.8 1-2.4 1.7-.7.7-1.2 1.5-1.6 2.5-.4 1-.6 2-.6 3.1 0 1.2.2 2.2.6 3.2.4 1 .9 1.8 1.6 2.4.7.7 1.5 1.2 2.4 1.6.9.4 2 .6 3.2.6 1.5 0 3.2-.5 4.9-1.6l-1.7-3.3c-.8.5-1.7.8-2.6.8-1 0-1.9-.3-2.4-1-.6-.6-.9-1.5-.9-2.7 0-1.1.3-2 .9-2.6.4-.7 1.2-1.1 2.2-1.1zM268.4 9.9c-.7-.7-1.5-1.2-2.4-1.6-.9-.4-2-.6-3.1-.6s-2.2.2-3.1.6c-.9.4-1.7.9-2.4 1.6-.7.7-1.2 1.5-1.5 2.5-.4 1-.5 2-.5 3.2 0 1.2.2 2.2.5 3.2.4 1 .9 1.8 1.5 2.5.7.7 1.5 1.2 2.4 1.6s2 .6 3.1.6 2.2-.2 3.1-.6c.9-.4 1.7-.9 2.4-1.6.7-.7 1.2-1.5 1.5-2.5.4-1 .6-2 .6-3.2 0-1.2-.2-2.2-.6-3.2-.4-1-.9-1.8-1.5-2.5zm-3.5 8.4c-.4.6-1.1 1-2 1-.9 0-1.6-.3-1.9-1-.4-.6-.6-1.6-.6-2.7 0-1.2.2-2.1.6-2.7.4-.6 1-1 2-1 .9 0 1.6.3 2 1 .4.6.6 1.6.6 2.7-.1 1.2-.3 2.1-.7 2.7zM294.3 9.4c-.9-1.1-2.1-1.6-3.7-1.6-1.7 0-3.1.8-4.1 2.4-.7-1.6-2-2.4-3.9-2.4-1.8 0-3.2.9-4.3 2.7h-.1V8.2h-4.4V23h4.7v-9.5c.6-1.1 1.3-1.7 2.1-1.7.7 0 1.2.3 1.4.8.2.5.3 1.4.3 2.4v8h4.7v-7.6c0-1.3.1-2.2.4-2.8.3-.6.8-.9 1.6-.9.7 0 1.1.3 1.4.8.3.6.4 1.4.4 2.6v7.8h4.7v-8.7c.1-2.1-.3-3.7-1.2-4.8z"/><g fill="#D7002D"><path d="M10.9 16.1c-.2 1.4-.9 3.6-.9 3.6h2.5s-.7-2.2-.9-3.6c.1.2.4.8 1.3 1.1.9.3 2.1.2 2.9-.5.9-.8 1.1-2 .9-3.1-.6-2.7-3.7-2.9-5-5.1-.2-.4-.4-.7-.5-1.1-.1.4-.3.8-.5 1.1-1.3 2.2-4.4 2.4-5 5.1-.2 1.1 0 2.3.9 3.1.8.6 2 .8 2.9.5.9-.3 1.2-.9 1.4-1.1zM27.8 24.1c-1.2.2-1.3 1.4-2.7 1.9.2-1.7.8-1.5 1.4-3.3.3-.8 0-1.6-.5-2.3-.4-.5-1-.8-1.6-.8-.6 0-1.2.3-1.6.8-.5.6-.7 1.5-.4 2.3.7 1.8 1.2 1.6 1.4 3.3-1.4-.5-1.5-1.6-2.7-1.9-1-.2-1.9.2-2.5 1-.4.7-.5 1.6-.1 2.3.4.8 1.2 1.1 2 1.2 1.8-.1 1.7-1.2 3.3-1.3-.2 1.8-.8 4-.8 4h2.7s-.6-2.2-.8-4c1.6.1 1.6 1.2 3.3 1.3.8 0 1.6-.4 2-1.2.4-.7.3-1.6-.1-2.3-.4-.8-1.4-1.2-2.3-1zM23.5 7.5L9.4 31.2l3.1.1 14-23.8"/><path d="M0 36.4h36.1V2H0v34.4zM3.1 5.1h30.1v28.3H3.1V5.1z"/></g><g fill="#D7002D"><path d="M45.9 36v-8.7h1.3v7.6h3.2V36h-4.5zM52.6 33.1c0 .6.2 1.1.5 1.5.3.4.7.5 1.2.5.6 0 1.1-.2 1.6-.6l.6.7c-.3.3-.6.5-1 .7-.4.1-.8.2-1.2.2-.4 0-.8-.1-1.2-.2-.4-.2-.7-.4-.9-.7-.3-.3-.4-.6-.6-1-.1-.4-.2-.8-.2-1.3s.1-1 .2-1.4c.1-.4.3-.8.6-1 .2-.3.5-.5.9-.7.3-.2.7-.2 1.1-.2.4 0 .7.1 1 .2s.6.3.8.6c.2.3.4.6.5 1 .1.4.2.8.2 1.3v.5h-4.1zm2.5-2c-.3-.3-.6-.4-1-.4s-.8.1-1 .4c-.3.3-.4.7-.5 1.2h3c-.1-.5-.2-.9-.5-1.2zM61.7 36v-1c-.5.8-1.1 1.2-1.9 1.2-.3 0-.5 0-.8-.1-.2-.1-.4-.2-.6-.4-.2-.2-.3-.4-.4-.6-.1-.2-.1-.5-.1-.8 0-.6.2-1.1.7-1.5.5-.4 1.1-.6 1.9-.6.4 0 .8 0 1.2.1v-.6c0-.3-.1-.6-.4-.8-.2-.2-.6-.3-1-.3-.5 0-1 .2-1.4.5l-.7-.8c.3-.3.6-.5.9-.6.3-.1.7-.2 1.1-.2.8 0 1.4.2 1.9.6.4.4.6 1 .6 1.9v4h-1zm-.1-2.8c-.2-.1-.4-.1-.6-.1h-.5c-.4 0-.7.1-1 .3-.2.2-.4.5-.4.8 0 .3.1.6.3.8.2.2.4.3.7.3.4 0 .8-.2 1-.5.3-.3.4-.8.4-1.3v-.3zM67.8 31c-.2-.1-.4-.2-.6-.2-.5 0-.9.4-1.3 1.1V36h-1.2v-6.1h1V31c.2-.5.5-.8.7-1s.5-.3.8-.3c.3 0 .6.1.9.4l-.3.9zM73.1 36v-3.5c0-1.2-.5-1.8-1.4-1.8-.6 0-1 .3-1.4 1V36h-1.2v-6.1h1v.9c.5-.7 1.1-1.1 1.9-1.1.7 0 1.2.2 1.6.7.4.5.6 1.1.6 2V36h-1.1zM80.6 36h-.3c-.9 0-1.3-.5-1.3-1.6v-3.8h-.8v-.8h.8v-2.1h1.2v2.1h.8v.8h-.8v3.8c0 .5.2.7.7.7h.1v.9h-.4zM88 32.9c0 .5-.1.9-.2 1.3s-.3.7-.6 1c-.3.3-.6.5-.9.7s-.8.2-1.2.2c-.4 0-.8-.1-1.2-.2-.4-.2-.7-.4-.9-.7-.3-.3-.5-.6-.6-1s-.4-.8-.4-1.3.1-.9.2-1.3.3-.7.6-1c.3-.3.6-.5.9-.7.4-.2.8-.2 1.2-.2.4 0 .8.1 1.2.2.4.2.7.4.9.7.3.3.5.6.6 1 .3.4.4.8.4 1.3zm-1.2 0c0-.7-.2-1.2-.5-1.6-.3-.4-.8-.6-1.3-.6s-1 .2-1.3.6c-.3.4-.5.9-.5 1.6 0 .3 0 .6.1.9.1.3.2.5.4.7.2.2.3.3.6.4.2.1.5.2.7.2.5 0 1-.2 1.3-.6.3-.4.5-.9.5-1.6zM97.2 36l-1.4-4.6-1.4 4.6h-.9l-2.1-6.1h1.2l1.3 4.2 1.3-4.2h1l1.3 4.2 1.4-4.2h1.2l-2 6.1h-.9zM102.7 28.3c0 .2-.1.3-.2.5-.1.1-.3.2-.5.2s-.4-.1-.5-.2c-.1-.1-.2-.3-.2-.5s.1-.4.2-.5c.1-.1.3-.2.5-.2s.4.1.5.2c.1.1.2.3.2.5zm-1.3 7.7v-6.1h1.2V36h-1.2zM108.8 36v-3.5c0-1.2-.5-1.8-1.4-1.8-.6 0-1 .3-1.4 1V36h-1.2v-6.1h1v.9c.5-.7 1.1-1.1 1.9-1.1.7 0 1.2.2 1.6.7.4.5.6 1.1.6 2V36h-1.1z"/></g></svg>